<svg width="100" height="100" viewBox="0 0 100 100" fill="none" xmlns="http://www.w3.org/2000/svg">
<path d="M50 90C60.6087 90 70.7828 85.7857 78.2843 78.2843C85.7857 70.7828 90 60.6087 90 50C90 39.3913 85.7857 29.2172 78.2843 21.7157C70.7828 14.2143 60.6087 10 50 10L50 90Z" fill="#E2B618"/>
<path d="M49 90V91H50C60.8739 91 71.3024 86.6804 78.9914 78.9914C86.6804 71.3024 91 60.8739 91 50C91 39.1261 86.6804 28.6976 78.9914 21.0086C71.3024 13.3196 60.8739 9 50 9H49V10L49 90ZM99 50C99 77.062 77.062 99 50 99C22.938 99 1 77.062 1 50C1 22.938 22.938 1 50 1C77.062 1 99 22.938 99 50ZM77.5772 77.5772C70.4993 84.6551 60.981 88.7315 51 88.9872L51 11.0128C60.981 11.2685 70.4993 15.345 77.5772 22.4228C84.8911 29.7368 89 39.6566 89 50C89 60.3434 84.8911 70.2632 77.5772 77.5772Z" stroke="#E2B618" stroke-width="2"/>
</svg>
