<svg width="69" height="75" viewBox="0 0 69 75" fill="none" xmlns="http://www.w3.org/2000/svg">
<path fill-rule="evenodd" clip-rule="evenodd" d="M52.8011 73.9006V7.87293C52.8011 3.46409 56.37 0 60.674 0C64.9781 0 68.547 3.56887 68.547 7.87293V73.9006H52.8011ZM26.3481 29.0773C26.3481 24.6685 29.9169 21.2044 34.221 21.2044C38.6298 21.2044 42.0939 24.7733 42.0939 29.0773V74.0055H26.3481V29.0773ZM0 44.8232C0 40.4144 3.56887 36.9503 7.87293 36.9503C12.177 36.9503 15.7459 40.5191 15.7459 44.8232V73.9006H0V44.8232Z" fill="#CDD0D5"/>
<path fill-rule="evenodd" clip-rule="evenodd" d="M0 44.8729C0 40.4641 3.56887 37 7.87293 37C12.177 37 15.7459 40.5689 15.7459 44.8729V73.9503H0V44.8729Z" fill="#585D64"/>
</svg>
